<svg xmlns="http://www.w3.org/2000/svg" width="1920" height="1080"><path d="M443,1311L-146,1342L844,1328Z" fill="#8d6e9a" stroke="#8d6e9a" stroke-width="1.51"/><path d="M316,-255L916,-242L980,-246Z" fill="#c6d5e8" stroke="#c6d5e8" stroke-width="1.51"/><path d="M23,-262L316,-255L980,-246Z" fill="#d5e3ef" stroke="#d5e3ef" stroke-width="1.51"/><path d="M1599,1278L1442,1312L1840,1280Z" fill="#732178" stroke="#732178" stroke-width="1.51"/><path d="M23,-262L980,-246L1972,-234Z" fill="#bfc4df" stroke="#bfc4df" stroke-width="1.51"/><path d="M980,-246L1330,-240L1972,-234Z" fill="#bfa4d0" stroke="#bfa4d0" stroke-width="1.51"/><path d="M1588,-203L1740,-200L1972,-234Z" fill="#bd8fbf" stroke="#bd8fbf" stroke-width="1.51"/><path d="M1330,-240L1588,-203L1972,-234Z" fill="#be97c7" stroke="#be97c7" stroke-width="1.51"/><path d="M1159,1318L844,1328L2073,1336Z" fill="#71357e" stroke="#71357e" stroke-width="1.51"/><path d="M1442,1312L1159,1318L2073,1336Z" fill="#6f2578" stroke="#6f2578" stroke-width="1.51"/><path d="M1896,1287L1840,1280L2073,1336Z" fill="#680664" stroke="#680664" stroke-width="1.51"/><path d="M1840,1280L1442,1312L2073,1336Z" fill="#6f126e" stroke="#6f126e" stroke-width="1.51"/><path d="M2052,1120L1896,1287L2073,1336Z" fill="#680664" stroke="#680664" stroke-width="1.51"/><path d="M2043,76L2068,245L2074,-42Z" fill="#95739f" stroke="#95739f" stroke-width="1.51"/><path d="M2096,489L1889,518L2101,708Z" fill="#7b5290" stroke="#7b5290" stroke-width="1.51"/><path d="M1889,518L1947,745L2101,708Z" fill="#7f4b90" stroke="#7f4b90" stroke-width="1.51"/><path d="M1946,963L2038,1003L2115,846Z" fill="#75297e" stroke="#75297e" stroke-width="1.51"/><path d="M1925,893L1946,963L2115,846Z" fill="#7a2e83" stroke="#7a2e83" stroke-width="1.51"/><path d="M2101,708L1947,745L2115,846Z" fill="#773c84" stroke="#773c84" stroke-width="1.51"/><path d="M2038,1003L2052,1120L2115,846Z" fill="#712278" stroke="#712278" stroke-width="1.51"/><path d="M2052,1120L2073,1336L2115,846Z" fill="#6e136e" stroke="#6e136e" stroke-width="1.51"/><path d="M1972,-234L2074,-42L2118,-196Z" fill="#a67fa7" stroke="#a67fa7" stroke-width="1.51"/><path d="M1937,344L2096,489L2120,421Z" fill="#805f95" stroke="#805f95" stroke-width="1.51"/><path d="M2068,245L1937,344L2120,421Z" fill="#85679a" stroke="#85679a" stroke-width="1.51"/><path d="M2101,708L2115,846L2120,421Z" fill="#734685" stroke="#734685" stroke-width="1.51"/><path d="M2096,489L2101,708L2120,421Z" fill="#75528b" stroke="#75528b" stroke-width="1.51"/><path d="M2118,-196L2074,-42L2120,421Z" fill="#93729d" stroke="#93729d" stroke-width="1.51"/><path d="M2074,-42L2068,245L2120,421Z" fill="#896b99" stroke="#896b99" stroke-width="1.51"/><path d="M1972,-234L1927,-54L2074,-42Z" fill="#a980ab" stroke="#a980ab" stroke-width="1.51"/><path d="M1947,745L1925,893L2115,846Z" fill="#7b3786" stroke="#7b3786" stroke-width="1.51"/><path d="M1937,344L1889,518L2096,489Z" fill="#86609b" stroke="#86609b" stroke-width="1.51"/><path d="M2043,76L1891,118L2068,245Z" fill="#9673a3" stroke="#9673a3" stroke-width="1.51"/><path d="M1913,1084L1896,1287L2052,1120Z" fill="#780c73" stroke="#780c73" stroke-width="1.51"/><path d="M1891,118L1891,231L2068,245Z" fill="#9872a6" stroke="#9872a6" stroke-width="1.51"/><path d="M1927,-54L2043,76L2074,-42Z" fill="#a07aa6" stroke="#a07aa6" stroke-width="1.51"/><path d="M2038,1003L1913,1084L2052,1120Z" fill="#761a77" stroke="#761a77" stroke-width="1.51"/><path d="M1891,231L1937,344L2068,245Z" fill="#906ea2" stroke="#906ea2" stroke-width="1.51"/><path d="M1889,518L1829,573L1947,745Z" fill="#88539a" stroke="#88539a" stroke-width="1.51"/><path d="M1946,963L1913,1084L2038,1003Z" fill="#7a227e" stroke="#7a227e" stroke-width="1.51"/><path d="M1927,-54L1891,118L2043,76Z" fill="#a27aaa" stroke="#a27aaa" stroke-width="1.51"/><path d="M1804,1179L1896,1287L1913,1084Z" fill="#7d0d78" stroke="#7d0d78" stroke-width="1.51"/><path d="M1829,573L1833,745L1947,745Z" fill="#894b98" stroke="#894b98" stroke-width="1.51"/><path d="M1834,837L1925,893L1947,745Z" fill="#833b8f" stroke="#833b8f" stroke-width="1.51"/><path d="M1740,-200L1927,-54L1972,-234Z" fill="#b787b7" stroke="#b787b7" stroke-width="1.51"/><path d="M1783,-16L1772,57L1891,118Z" fill="#ab80b5" stroke="#ab80b5" stroke-width="1.51"/><path d="M1804,1179L1840,1280L1896,1287Z" fill="#750d71" stroke="#750d71" stroke-width="1.51"/><path d="M1783,-16L1891,118L1927,-54Z" fill="#ad7fb3" stroke="#ad7fb3" stroke-width="1.51"/><path d="M1740,-200L1783,-16L1927,-54Z" fill="#b588ba" stroke="#b588ba" stroke-width="1.51"/><path d="M1744,344L1889,518L1937,344Z" fill="#9269a7" stroke="#9269a7" stroke-width="1.51"/><path d="M1773,938L1913,1084L1946,963Z" fill="#832787" stroke="#832787" stroke-width="1.51"/><path d="M1833,745L1834,837L1947,745Z" fill="#874194" stroke="#874194" stroke-width="1.51"/><path d="M1925,893L1773,938L1946,963Z" fill="#842f8b" stroke="#842f8b" stroke-width="1.51"/><path d="M1891,231L1775,257L1937,344Z" fill="#9a72ab" stroke="#9a72ab" stroke-width="1.51"/><path d="M1775,257L1744,344L1937,344Z" fill="#9872ad" stroke="#9872ad" stroke-width="1.51"/><path d="M1834,837L1773,938L1925,893Z" fill="#863690" stroke="#863690" stroke-width="1.51"/><path d="M1773,938L1804,1179L1913,1084Z" fill="#842185" stroke="#842185" stroke-width="1.51"/><path d="M1744,344L1829,573L1889,518Z" fill="#8f64a5" stroke="#8f64a5" stroke-width="1.51"/><path d="M1772,57L1775,257L1891,118Z" fill="#a47cb2" stroke="#a47cb2" stroke-width="1.51"/><path d="M1891,118L1775,257L1891,231Z" fill="#a077af" stroke="#a077af" stroke-width="1.51"/><path d="M1772,57L1664,127L1775,257Z" fill="#a480b6" stroke="#a480b6" stroke-width="1.51"/><path d="M1740,-200L1678,-59L1783,-16Z" fill="#b68dbf" stroke="#b68dbf" stroke-width="1.51"/><path d="M1773,938L1593,1111L1804,1179Z" fill="#85298a" stroke="#85298a" stroke-width="1.51"/><path d="M1744,344L1604,413L1829,573Z" fill="#916dad" stroke="#916dad" stroke-width="1.51"/><path d="M1604,413L1595,553L1829,573Z" fill="#8e69ac" stroke="#8e69ac" stroke-width="1.51"/><path d="M1829,573L1675,727L1833,745Z" fill="#8a519e" stroke="#8a519e" stroke-width="1.51"/><path d="M1833,745L1675,727L1834,837Z" fill="#89479a" stroke="#89479a" stroke-width="1.51"/><path d="M1804,1179L1599,1278L1840,1280Z" fill="#771877" stroke="#771877" stroke-width="1.51"/><path d="M1613,807L1773,938L1834,837Z" fill="#884097" stroke="#884097" stroke-width="1.51"/><path d="M1675,727L1613,807L1834,837Z" fill="#89499d" stroke="#89499d" stroke-width="1.51"/><path d="M1595,553L1675,727L1829,573Z" fill="#8b5da5" stroke="#8b5da5" stroke-width="1.51"/><path d="M1582,959L1593,1111L1773,938Z" fill="#873694" stroke="#873694" stroke-width="1.51"/><path d="M1593,1111L1599,1278L1804,1179Z" fill="#802382" stroke="#802382" stroke-width="1.51"/><path d="M1664,127L1634,241L1775,257Z" fill="#a07fb7" stroke="#a07fb7" stroke-width="1.51"/><path d="M1678,-59L1772,57L1783,-16Z" fill="#b088bb" stroke="#b088bb" stroke-width="1.51"/><path d="M1613,807L1582,959L1773,938Z" fill="#88409a" stroke="#88409a" stroke-width="1.51"/><path d="M1634,241L1744,344L1775,257Z" fill="#9b7ab3" stroke="#9b7ab3" stroke-width="1.51"/><path d="M1678,-59L1664,127L1772,57Z" fill="#ad87bc" stroke="#ad87bc" stroke-width="1.51"/><path d="M1588,-203L1678,-59L1740,-200Z" fill="#ba93c4" stroke="#ba93c4" stroke-width="1.51"/><path d="M1634,241L1604,413L1744,344Z" fill="#977bb6" stroke="#977bb6" stroke-width="1.51"/><path d="M149,1297L-146,1342L443,1311Z" fill="#9a77a0" stroke="#9a77a0" stroke-width="1.51"/><path d="M1595,553L1459,722L1675,727Z" fill="#8c5faa" stroke="#8c5faa" stroke-width="1.51"/><path d="M1588,-203L1444,-7L1678,-59Z" fill="#b796c8" stroke="#b796c8" stroke-width="1.51"/><path d="M1463,63L1664,127L1678,-59Z" fill="#ac8dc2" stroke="#ac8dc2" stroke-width="1.51"/><path d="M1444,-7L1463,63L1678,-59Z" fill="#b194c7" stroke="#b194c7" stroke-width="1.51"/><path d="M1459,722L1613,807L1675,727Z" fill="#8b55a5" stroke="#8b55a5" stroke-width="1.51"/><path d="M1434,-154L1444,-7L1588,-203Z" fill="#b99ccc" stroke="#b99ccc" stroke-width="1.51"/><path d="M1506,222L1604,413L1634,241Z" fill="#9a81bb" stroke="#9a81bb" stroke-width="1.51"/><path d="M1506,222L1634,241L1664,127Z" fill="#a185bd" stroke="#a185bd" stroke-width="1.51"/><path d="M1463,63L1506,222L1664,127Z" fill="#a58bc1" stroke="#a58bc1" stroke-width="1.51"/><path d="M1282,1286L1159,1318L1442,1312Z" fill="#753b83" stroke="#753b83" stroke-width="1.51"/><path d="M1582,959L1529,1084L1593,1111Z" fill="#873794" stroke="#873794" stroke-width="1.51"/><path d="M1463,560L1459,722L1595,553Z" fill="#8c69b0" stroke="#8c69b0" stroke-width="1.51"/><path d="M1506,222L1461,422L1604,413Z" fill="#9681bb" stroke="#9681bb" stroke-width="1.51"/><path d="M1504,874L1582,959L1613,807Z" fill="#8949a0" stroke="#8949a0" stroke-width="1.51"/><path d="M316,-255L602,-202L916,-242Z" fill="#cadceb" stroke="#cadceb" stroke-width="1.51"/><path d="M1330,-240L1434,-154L1588,-203Z" fill="#bda1ce" stroke="#bda1ce" stroke-width="1.51"/><path d="M1461,422L1463,560L1595,553Z" fill="#8e73b5" stroke="#8e73b5" stroke-width="1.51"/><path d="M1593,1111L1529,1084L1599,1278Z" fill="#852b8b" stroke="#852b8b" stroke-width="1.51"/><path d="M1529,1084L1442,1312L1599,1278Z" fill="#7d2d85" stroke="#7d2d85" stroke-width="1.51"/><path d="M1461,422L1595,553L1604,413Z" fill="#9075b5" stroke="#9075b5" stroke-width="1.51"/><path d="M1459,722L1504,874L1613,807Z" fill="#8a53a5" stroke="#8a53a5" stroke-width="1.51"/><path d="M1469,1000L1529,1084L1582,959Z" fill="#883e99" stroke="#883e99" stroke-width="1.51"/><path d="M1504,874L1469,1000L1582,959Z" fill="#89459f" stroke="#89459f" stroke-width="1.51"/><path d="M1387,661L1459,722L1463,560Z" fill="#8c6ab0" stroke="#8c6ab0" stroke-width="1.51"/><path d="M1459,722L1362,843L1504,874Z" fill="#8b58a8" stroke="#8b58a8" stroke-width="1.51"/><path d="M1369,342L1461,422L1506,222Z" fill="#9788bf" stroke="#9788bf" stroke-width="1.51"/><path d="M1463,63L1385,141L1506,222Z" fill="#a691c4" stroke="#a691c4" stroke-width="1.51"/><path d="M1469,1000L1308,1112L1529,1084Z" fill="#884098" stroke="#884098" stroke-width="1.51"/><path d="M1308,1112L1442,1312L1529,1084Z" fill="#85388f" stroke="#85388f" stroke-width="1.51"/><path d="M1373,991L1308,1112L1469,1000Z" fill="#89479c" stroke="#89479c" stroke-width="1.51"/><path d="M1373,991L1469,1000L1504,874Z" fill="#8949a0" stroke="#8949a0" stroke-width="1.51"/><path d="M1362,843L1373,991L1504,874Z" fill="#8a51a4" stroke="#8a51a4" stroke-width="1.51"/><path d="M1385,141L1338,198L1506,222Z" fill="#a391c5" stroke="#a391c5" stroke-width="1.51"/><path d="M1338,198L1369,342L1506,222Z" fill="#9d8fc3" stroke="#9d8fc3" stroke-width="1.51"/><path d="M1308,1112L1282,1286L1442,1312Z" fill="#7d3b89" stroke="#7d3b89" stroke-width="1.51"/><path d="M1434,-154L1301,-114L1444,-7Z" fill="#b7a2ce" stroke="#b7a2ce" stroke-width="1.51"/><path d="M1364,546L1387,661L1463,560Z" fill="#8d72b4" stroke="#8d72b4" stroke-width="1.51"/><path d="M1461,422L1364,546L1463,560Z" fill="#8e79b7" stroke="#8e79b7" stroke-width="1.51"/><path d="M1387,661L1362,843L1459,722Z" fill="#8c62ac" stroke="#8c62ac" stroke-width="1.51"/><path d="M1369,342L1364,546L1461,422Z" fill="#9281bc" stroke="#9281bc" stroke-width="1.51"/><path d="M1444,-7L1385,141L1463,63Z" fill="#ab96c8" stroke="#ab96c8" stroke-width="1.51"/><path d="M1207,-11L1385,141L1444,-7Z" fill="#ad9ecb" stroke="#ad9ecb" stroke-width="1.51"/><path d="M1301,-114L1207,-11L1444,-7Z" fill="#b4a4cf" stroke="#b4a4cf" stroke-width="1.51"/><path d="M980,-246L1175,-183L1330,-240Z" fill="#bfb6d9" stroke="#bfb6d9" stroke-width="1.51"/><path d="M1330,-240L1301,-114L1434,-154Z" fill="#bba7d1" stroke="#bba7d1" stroke-width="1.51"/><path d="M1129,888L1177,1025L1362,843Z" fill="#8b5daa" stroke="#8b5daa" stroke-width="1.51"/><path d="M1338,198L1216,273L1369,342Z" fill="#9c94c6" stroke="#9c94c6" stroke-width="1.51"/><path d="M1226,348L1364,546L1369,342Z" fill="#9388bf" stroke="#9388bf" stroke-width="1.51"/><path d="M1362,843L1177,1025L1373,991Z" fill="#8a54a5" stroke="#8a54a5" stroke-width="1.51"/><path d="M1159,57L1338,198L1385,141Z" fill="#a69cca" stroke="#a69cca" stroke-width="1.51"/><path d="M1207,-11L1159,57L1385,141Z" fill="#aba3ce" stroke="#aba3ce" stroke-width="1.51"/><path d="M1150,673L1362,843L1387,661Z" fill="#8c6bb0" stroke="#8c6bb0" stroke-width="1.51"/><path d="M1364,546L1162,558L1387,661Z" fill="#8d79b7" stroke="#8d79b7" stroke-width="1.51"/><path d="M1162,558L1150,673L1387,661Z" fill="#8d79b8" stroke="#8d79b8" stroke-width="1.51"/><path d="M1226,348L1162,558L1364,546Z" fill="#8f86be" stroke="#8f86be" stroke-width="1.51"/><path d="M1216,273L1226,348L1369,342Z" fill="#9893c5" stroke="#9893c5" stroke-width="1.51"/><path d="M1177,1025L1308,1112L1373,991Z" fill="#894d9e" stroke="#894d9e" stroke-width="1.51"/><path d="M1150,673L1129,888L1362,843Z" fill="#8c69b0" stroke="#8c69b0" stroke-width="1.51"/><path d="M1158,1195L1282,1286L1308,1112Z" fill="#834491" stroke="#834491" stroke-width="1.51"/><path d="M1175,-183L1301,-114L1330,-240Z" fill="#bcadd4" stroke="#bcadd4" stroke-width="1.51"/><path d="M1159,57L1216,273L1338,198Z" fill="#a39dcb" stroke="#a39dcb" stroke-width="1.51"/><path d="M1177,1025L1158,1195L1308,1112Z" fill="#894d9c" stroke="#894d9c" stroke-width="1.51"/><path d="M1175,-183L1207,-11L1301,-114Z" fill="#b8add4" stroke="#b8add4" stroke-width="1.51"/><path d="M1069,832L1129,888L1150,673Z" fill="#8c71b3" stroke="#8c71b3" stroke-width="1.51"/><path d="M1158,1195L1159,1318L1282,1286Z" fill="#7a448a" stroke="#7a448a" stroke-width="1.51"/><path d="M989,1263L844,1328L1159,1318Z" fill="#78518c" stroke="#78518c" stroke-width="1.51"/><path d="M1129,888L1090,954L1177,1025Z" fill="#8c60ab" stroke="#8c60ab" stroke-width="1.51"/><path d="M1175,-183L1006,-94L1207,-11Z" fill="#b8b4d7" stroke="#b8b4d7" stroke-width="1.51"/><path d="M1159,57L1028,236L1216,273Z" fill="#a2a4ce" stroke="#a2a4ce" stroke-width="1.51"/><path d="M1002,400L1162,558L1226,348Z" fill="#9193c5" stroke="#9193c5" stroke-width="1.51"/><path d="M1216,273L1028,236L1226,348Z" fill="#9a9dca" stroke="#9a9dca" stroke-width="1.51"/><path d="M1028,236L1002,400L1226,348Z" fill="#97a0cb" stroke="#97a0cb" stroke-width="1.51"/><path d="M997,1156L1158,1195L1177,1025Z" fill="#8a549e" stroke="#8a549e" stroke-width="1.51"/><path d="M1006,-94L1159,57L1207,-11Z" fill="#b2b0d5" stroke="#b2b0d5" stroke-width="1.51"/><path d="M1090,647L1069,832L1150,673Z" fill="#8d7ab8" stroke="#8d7ab8" stroke-width="1.51"/><path d="M1158,1195L989,1263L1159,1318Z" fill="#7d4c8f" stroke="#7d4c8f" stroke-width="1.51"/><path d="M990,65L1028,236L1159,57Z" fill="#a7add3" stroke="#a7add3" stroke-width="1.51"/><path d="M1006,-94L990,65L1159,57Z" fill="#b0b4d7" stroke="#b0b4d7" stroke-width="1.51"/><path d="M1002,400L987,581L1162,558Z" fill="#8e92c4" stroke="#8e92c4" stroke-width="1.51"/><path d="M1090,647L1150,673L1162,558Z" fill="#8d81bc" stroke="#8d81bc" stroke-width="1.51"/><path d="M1090,954L997,1156L1177,1025Z" fill="#8b5ca5" stroke="#8b5ca5" stroke-width="1.51"/><path d="M980,-246L1006,-94L1175,-183Z" fill="#bcbddb" stroke="#bcbddb" stroke-width="1.51"/><path d="M770,1301L443,1311L844,1328Z" fill="#806495" stroke="#806495" stroke-width="1.51"/><path d="M987,581L1090,647L1162,558Z" fill="#8d88bf" stroke="#8d88bf" stroke-width="1.51"/><path d="M997,1156L989,1263L1158,1195Z" fill="#855398" stroke="#855398" stroke-width="1.51"/><path d="M938,806L1069,832L1090,647Z" fill="#8d7ab8" stroke="#8d7ab8" stroke-width="1.51"/><path d="M1069,832L1090,954L1129,888Z" fill="#8c69af" stroke="#8c69af" stroke-width="1.51"/><path d="M990,65L922,119L1028,236Z" fill="#a5b2d5" stroke="#a5b2d5" stroke-width="1.51"/><path d="M987,581L916,682L1090,647Z" fill="#8d8abf" stroke="#8d8abf" stroke-width="1.51"/><path d="M916,682L938,806L1090,647Z" fill="#8c83bd" stroke="#8c83bd" stroke-width="1.51"/><path d="M912,1136L997,1156L1090,954Z" fill="#8c5fa5" stroke="#8c5fa5" stroke-width="1.51"/><path d="M871,956L912,1136L1090,954Z" fill="#8c68ac" stroke="#8c68ac" stroke-width="1.51"/><path d="M1069,832L938,806L1090,954Z" fill="#8d71b3" stroke="#8d71b3" stroke-width="1.51"/><path d="M938,806L871,956L1090,954Z" fill="#8c71b4" stroke="#8c71b4" stroke-width="1.51"/><path d="M912,532L987,581L1002,400Z" fill="#8e98c8" stroke="#8e98c8" stroke-width="1.51"/><path d="M980,-246L916,-242L1006,-94Z" fill="#bcc4df" stroke="#bcc4df" stroke-width="1.51"/><path d="M898,-57L990,65L1006,-94Z" fill="#b2bddb" stroke="#b2bddb" stroke-width="1.51"/><path d="M829,247L1002,400L1028,236Z" fill="#98abd1" stroke="#98abd1" stroke-width="1.51"/><path d="M922,119L829,247L1028,236Z" fill="#a1b2d5" stroke="#a1b2d5" stroke-width="1.51"/><path d="M602,-202L729,-172L916,-242Z" fill="#c4d3e7" stroke="#c4d3e7" stroke-width="1.51"/><path d="M912,1136L989,1263L997,1156Z" fill="#885a9d" stroke="#885a9d" stroke-width="1.51"/><path d="M829,247L847,426L1002,400Z" fill="#96abd1" stroke="#96abd1" stroke-width="1.51"/><path d="M847,426L912,532L1002,400Z" fill="#91a0cc" stroke="#91a0cc" stroke-width="1.51"/><path d="M916,-242L898,-57L1006,-94Z" fill="#bac4de" stroke="#bac4de" stroke-width="1.51"/><path d="M912,532L916,682L987,581Z" fill="#8d92c3" stroke="#8d92c3" stroke-width="1.51"/><path d="M912,1136L844,1328L989,1263Z" fill="#825a97" stroke="#825a97" stroke-width="1.51"/><path d="M898,-57L922,119L990,65Z" fill="#adbada" stroke="#adbada" stroke-width="1.51"/><path d="M613,1265L443,1311L770,1301Z" fill="#86699a" stroke="#86699a" stroke-width="1.51"/><path d="M749,990L780,1148L871,956Z" fill="#9271b0" stroke="#9271b0" stroke-width="1.51"/><path d="M871,956L780,1148L912,1136Z" fill="#8f69aa" stroke="#8f69aa" stroke-width="1.51"/><path d="M780,1148L844,1328L912,1136Z" fill="#89619e" stroke="#89619e" stroke-width="1.51"/><path d="M755,-86L898,-57L916,-242Z" fill="#bcc9e1" stroke="#bcc9e1" stroke-width="1.51"/><path d="M729,-172L755,-86L916,-242Z" fill="#c0cee4" stroke="#c0cee4" stroke-width="1.51"/><path d="M912,532L714,675L916,682Z" fill="#9093c5" stroke="#9093c5" stroke-width="1.51"/><path d="M898,-57L701,113L922,119Z" fill="#afc0dc" stroke="#afc0dc" stroke-width="1.51"/><path d="M707,880L871,956L938,806Z" fill="#917bb9" stroke="#917bb9" stroke-width="1.51"/><path d="M916,682L714,675L938,806Z" fill="#908ac0" stroke="#908ac0" stroke-width="1.51"/><path d="M714,675L707,880L938,806Z" fill="#9388bf" stroke="#9388bf" stroke-width="1.51"/><path d="M780,1148L770,1301L844,1328Z" fill="#836099" stroke="#836099" stroke-width="1.51"/><path d="M755,-86L701,113L898,-57Z" fill="#b6c8e1" stroke="#b6c8e1" stroke-width="1.51"/><path d="M686,537L714,675L912,532Z" fill="#929dca" stroke="#929dca" stroke-width="1.51"/><path d="M701,113L829,247L922,119Z" fill="#a8bbda" stroke="#a8bbda" stroke-width="1.51"/><path d="M847,426L686,537L912,532Z" fill="#93a3cd" stroke="#93a3cd" stroke-width="1.51"/><path d="M829,247L733,381L847,426Z" fill="#9ab1d4" stroke="#9ab1d4" stroke-width="1.51"/><path d="M707,880L749,990L871,956Z" fill="#937ab8" stroke="#937ab8" stroke-width="1.51"/><path d="M316,-255L468,-195L602,-202Z" fill="#d2e1ee" stroke="#d2e1ee" stroke-width="1.51"/><path d="M701,113L682,194L829,247Z" fill="#a8bfdc" stroke="#a8bfdc" stroke-width="1.51"/><path d="M733,381L686,537L847,426Z" fill="#96abd1" stroke="#96abd1" stroke-width="1.51"/><path d="M682,194L733,381L829,247Z" fill="#a1bad9" stroke="#a1bad9" stroke-width="1.51"/><path d="M682,194L624,234L733,381Z" fill="#a3bedc" stroke="#a3bedc" stroke-width="1.51"/><path d="M555,-18L701,113L755,-86Z" fill="#b8cee4" stroke="#b8cee4" stroke-width="1.51"/><path d="M749,990L572,1125L780,1148Z" fill="#9573ae" stroke="#9573ae" stroke-width="1.51"/><path d="M613,1265L770,1301L780,1148Z" fill="#89669e" stroke="#89669e" stroke-width="1.51"/><path d="M572,1125L613,1265L780,1148Z" fill="#946ea7" stroke="#946ea7" stroke-width="1.51"/><path d="M551,732L707,880L714,675Z" fill="#9792c4" stroke="#9792c4" stroke-width="1.51"/><path d="M545,961L572,1125L749,990Z" fill="#997cb6" stroke="#997cb6" stroke-width="1.51"/><path d="M729,-172L602,-202L755,-86Z" fill="#c2d4e8" stroke="#c2d4e8" stroke-width="1.51"/><path d="M602,-202L555,-18L755,-86Z" fill="#c2d6e8" stroke="#c2d6e8" stroke-width="1.51"/><path d="M551,732L550,847L707,880Z" fill="#9a8fc3" stroke="#9a8fc3" stroke-width="1.51"/><path d="M624,234L567,355L733,381Z" fill="#a0bddb" stroke="#a0bddb" stroke-width="1.51"/><path d="M707,880L545,961L749,990Z" fill="#9780bc" stroke="#9780bc" stroke-width="1.51"/><path d="M555,-18L581,111L701,113Z" fill="#b6cde3" stroke="#b6cde3" stroke-width="1.51"/><path d="M567,355L686,537L733,381Z" fill="#9ab3d5" stroke="#9ab3d5" stroke-width="1.51"/><path d="M686,537L534,575L714,675Z" fill="#97a4cd" stroke="#97a4cd" stroke-width="1.51"/><path d="M534,575L551,732L714,675Z" fill="#9a9fcb" stroke="#9a9fcb" stroke-width="1.51"/><path d="M581,111L682,194L701,113Z" fill="#aec7e0" stroke="#aec7e0" stroke-width="1.51"/><path d="M550,847L545,961L707,880Z" fill="#9a88bf" stroke="#9a88bf" stroke-width="1.51"/><path d="M567,355L534,575L686,537Z" fill="#9bb0d4" stroke="#9bb0d4" stroke-width="1.51"/><path d="M487,397L534,575L567,355Z" fill="#a1b7d7" stroke="#a1b7d7" stroke-width="1.51"/><path d="M581,111L624,234L682,194Z" fill="#acc5df" stroke="#acc5df" stroke-width="1.51"/><path d="M234,1276L149,1297L443,1311Z" fill="#9674a0" stroke="#9674a0" stroke-width="1.51"/><path d="M468,-195L555,-18L602,-202Z" fill="#c9dbeb" stroke="#c9dbeb" stroke-width="1.51"/><path d="M581,111L417,277L624,234Z" fill="#afc7e0" stroke="#afc7e0" stroke-width="1.51"/><path d="M417,277L567,355L624,234Z" fill="#a9c3de" stroke="#a9c3de" stroke-width="1.51"/><path d="M572,1125L443,1311L613,1265Z" fill="#926fa3" stroke="#926fa3" stroke-width="1.51"/><path d="M438,945L379,1108L545,961Z" fill="#a283bb" stroke="#a283bb" stroke-width="1.51"/><path d="M534,575L435,592L551,732Z" fill="#9ea5ce" stroke="#9ea5ce" stroke-width="1.51"/><path d="M468,-195L383,-58L555,-18Z" fill="#cadceb" stroke="#cadceb" stroke-width="1.51"/><path d="M545,961L379,1108L572,1125Z" fill="#9f7cb5" stroke="#9f7cb5" stroke-width="1.51"/><path d="M379,1108L443,1311L572,1125Z" fill="#9d75ab" stroke="#9d75ab" stroke-width="1.51"/><path d="M555,-18L385,62L581,111Z" fill="#bdd2e5" stroke="#bdd2e5" stroke-width="1.51"/><path d="M385,62L417,277L581,111Z" fill="#b8cde3" stroke="#b8cde3" stroke-width="1.51"/><path d="M438,945L545,961L550,847Z" fill="#9f89c0" stroke="#9f89c0" stroke-width="1.51"/><path d="M422,789L550,847L551,732Z" fill="#9f95c6" stroke="#9f95c6" stroke-width="1.51"/><path d="M417,277L487,397L567,355Z" fill="#a7c1dd" stroke="#a7c1dd" stroke-width="1.51"/><path d="M487,397L435,592L534,575Z" fill="#a0b1d4" stroke="#a0b1d4" stroke-width="1.51"/><path d="M435,592L384,657L551,732Z" fill="#a1a4ce" stroke="#a1a4ce" stroke-width="1.51"/><path d="M383,-58L385,62L555,-18Z" fill="#c5d8e9" stroke="#c5d8e9" stroke-width="1.51"/><path d="M422,789L438,945L550,847Z" fill="#a190c4" stroke="#a190c4" stroke-width="1.51"/><path d="M384,657L422,789L551,732Z" fill="#a19dca" stroke="#a19dca" stroke-width="1.51"/><path d="M229,400L435,592L487,397Z" fill="#a8bad9" stroke="#a8bad9" stroke-width="1.51"/><path d="M417,277L229,400L487,397Z" fill="#adc4df" stroke="#adc4df" stroke-width="1.51"/><path d="M229,400L238,588L435,592Z" fill="#aab7d8" stroke="#aab7d8" stroke-width="1.51"/><path d="M422,789L308,839L438,945Z" fill="#a593c5" stroke="#a593c5" stroke-width="1.51"/><path d="M325,950L379,1108L438,945Z" fill="#a586bd" stroke="#a586bd" stroke-width="1.51"/><path d="M379,1108L286,1147L443,1311Z" fill="#a077ac" stroke="#a077ac" stroke-width="1.51"/><path d="M316,-255L383,-58L468,-195Z" fill="#d3e2ee" stroke="#d3e2ee" stroke-width="1.51"/><path d="M316,-255L263,-115L383,-58Z" fill="#d5e3ef" stroke="#d5e3ef" stroke-width="1.51"/><path d="M385,62L238,245L417,277Z" fill="#bacfe4" stroke="#bacfe4" stroke-width="1.51"/><path d="M384,657L332,672L422,789Z" fill="#a5a2cd" stroke="#a5a2cd" stroke-width="1.51"/><path d="M308,839L325,950L438,945Z" fill="#a68fc3" stroke="#a68fc3" stroke-width="1.51"/><path d="M286,1147L234,1276L443,1311Z" fill="#9b76a6" stroke="#9b76a6" stroke-width="1.51"/><path d="M320,45L238,245L385,62Z" fill="#c3d5e8" stroke="#c3d5e8" stroke-width="1.51"/><path d="M238,588L384,657L435,592Z" fill="#a7add2" stroke="#a7add2" stroke-width="1.51"/><path d="M238,588L332,672L384,657Z" fill="#a9abd2" stroke="#a9abd2" stroke-width="1.51"/><path d="M383,-58L320,45L385,62Z" fill="#c8d9ea" stroke="#c8d9ea" stroke-width="1.51"/><path d="M238,245L229,400L417,277Z" fill="#b4cbe3" stroke="#b4cbe3" stroke-width="1.51"/><path d="M332,672L308,839L422,789Z" fill="#a79cca" stroke="#a79cca" stroke-width="1.51"/><path d="M325,950L286,1147L379,1108Z" fill="#a882b8" stroke="#a882b8" stroke-width="1.51"/><path d="M263,-115L320,45L383,-58Z" fill="#cfdfed" stroke="#cfdfed" stroke-width="1.51"/><path d="M143,949L178,1162L286,1147Z" fill="#ae86b9" stroke="#ae86b9" stroke-width="1.51"/><path d="M23,-262L180,-169L316,-255Z" fill="#e3edf5" stroke="#e3edf5" stroke-width="1.51"/><path d="M180,-169L263,-115L316,-255Z" fill="#dbe8f1" stroke="#dbe8f1" stroke-width="1.51"/><path d="M159,93L238,245L320,45Z" fill="#c6d8e9" stroke="#c6d8e9" stroke-width="1.51"/><path d="M263,-115L188,-62L320,45Z" fill="#d2e2ee" stroke="#d2e2ee" stroke-width="1.51"/><path d="M143,949L286,1147L325,950Z" fill="#ac8abf" stroke="#ac8abf" stroke-width="1.51"/><path d="M308,839L160,854L325,950Z" fill="#ac95c7" stroke="#ac95c7" stroke-width="1.51"/><path d="M238,588L82,724L332,672Z" fill="#aeadd3" stroke="#aeadd3" stroke-width="1.51"/><path d="M160,854L308,839L332,672Z" fill="#ac9ecb" stroke="#ac9ecb" stroke-width="1.51"/><path d="M82,724L160,854L332,672Z" fill="#b0a4cf" stroke="#b0a4cf" stroke-width="1.51"/><path d="M160,854L143,949L325,950Z" fill="#af94c6" stroke="#af94c6" stroke-width="1.51"/><path d="M229,400L135,486L238,588Z" fill="#b1bfdc" stroke="#b1bfdc" stroke-width="1.51"/><path d="M188,-62L159,93L320,45Z" fill="#cedeec" stroke="#cedeec" stroke-width="1.51"/><path d="M178,1162L234,1276L286,1147Z" fill="#a77dae" stroke="#a77dae" stroke-width="1.51"/><path d="M139,295L229,400L238,245Z" fill="#b9cfe4" stroke="#b9cfe4" stroke-width="1.51"/><path d="M180,-169L188,-62L263,-115Z" fill="#dae7f1" stroke="#dae7f1" stroke-width="1.51"/><path d="M139,295L94,370L229,400Z" fill="#b9cee4" stroke="#b9cee4" stroke-width="1.51"/><path d="M178,1162L149,1297L234,1276Z" fill="#a27aa9" stroke="#a27aa9" stroke-width="1.51"/><path d="M135,486L82,724L238,588Z" fill="#b2b6d8" stroke="#b2b6d8" stroke-width="1.51"/><path d="M159,93L139,295L238,245Z" fill="#c3d6e7" stroke="#c3d6e7" stroke-width="1.51"/><path d="M94,370L135,486L229,400Z" fill="#b7c8e1" stroke="#b7c8e1" stroke-width="1.51"/><path d="M-22,660L82,724L135,486Z" fill="#b6b7d8" stroke="#b6b7d8" stroke-width="1.51"/><path d="M28,254L139,295L159,93Z" fill="#c6d8e9" stroke="#c6d8e9" stroke-width="1.51"/><path d="M143,949L-8,1032L178,1162Z" fill="#b38cbf" stroke="#b38cbf" stroke-width="1.51"/><path d="M-22,1234L149,1297L178,1162Z" fill="#a87eac" stroke="#a87eac" stroke-width="1.51"/><path d="M180,-169L-55,-78L188,-62Z" fill="#dfebf4" stroke="#dfebf4" stroke-width="1.51"/><path d="M-55,-78L18,43L188,-62Z" fill="#dde9f3" stroke="#dde9f3" stroke-width="1.51"/><path d="M18,43L159,93L188,-62Z" fill="#d4e3ef" stroke="#d4e3ef" stroke-width="1.51"/><path d="M-22,1234L-146,1342L149,1297Z" fill="#a47ea6" stroke="#a47ea6" stroke-width="1.51"/><path d="M-8,1032L-50,1186L178,1162Z" fill="#b688ba" stroke="#b688ba" stroke-width="1.51"/><path d="M23,-262L-55,-78L180,-169Z" fill="#e5f0f6" stroke="#e5f0f6" stroke-width="1.51"/><path d="M-50,1186L-22,1234L178,1162Z" fill="#b183b2" stroke="#b183b2" stroke-width="1.51"/><path d="M18,43L28,254L159,93Z" fill="#cfdfed" stroke="#cfdfed" stroke-width="1.51"/><path d="M12,789L143,949L160,854Z" fill="#b49dcc" stroke="#b49dcc" stroke-width="1.51"/><path d="M82,724L12,789L160,854Z" fill="#b5a5d0" stroke="#b5a5d0" stroke-width="1.51"/><path d="M-69,500L-22,660L135,486Z" fill="#b8c0dd" stroke="#b8c0dd" stroke-width="1.51"/><path d="M12,789L-8,1032L143,949Z" fill="#b799ca" stroke="#b799ca" stroke-width="1.51"/><path d="M28,254L94,370L139,295Z" fill="#c0d4e8" stroke="#c0d4e8" stroke-width="1.51"/><path d="M94,370L-69,500L135,486Z" fill="#bbc8e2" stroke="#bbc8e2" stroke-width="1.51"/><path d="M-30,336L-69,500L94,370Z" fill="#bfcee4" stroke="#bfcee4" stroke-width="1.51"/><path d="M28,254L-30,336L94,370Z" fill="#c1d6e8" stroke="#c1d6e8" stroke-width="1.51"/><path d="M-22,660L12,789L82,724Z" fill="#b8add4" stroke="#b8add4" stroke-width="1.51"/><path d="M-182,806L-220,1006L-8,1032Z" fill="#bd9bcb" stroke="#bd9bcb" stroke-width="1.51"/><path d="M-22,660L-109,695L12,789Z" fill="#bab0d5" stroke="#bab0d5" stroke-width="1.51"/><path d="M-182,806L-8,1032L12,789Z" fill="#bba0ce" stroke="#bba0ce" stroke-width="1.51"/><path d="M-123,-100L-55,-78L23,-262Z" fill="#e9f1f7" stroke="#e9f1f7" stroke-width="1.51"/><path d="M-173,-199L-123,-100L23,-262Z" fill="#ecf4f9" stroke="#ecf4f9" stroke-width="1.51"/><path d="M-201,286L-30,336L28,254Z" fill="#c8daea" stroke="#c8daea" stroke-width="1.51"/><path d="M-193,143L-201,286L28,254Z" fill="#cfdfec" stroke="#cfdfec" stroke-width="1.51"/><path d="M18,43L-193,143L28,254Z" fill="#d2e1ee" stroke="#d2e1ee" stroke-width="1.51"/><path d="M-138,1163L-50,1186L-8,1032Z" fill="#ba8bbb" stroke="#ba8bbb" stroke-width="1.51"/><path d="M-55,-78L-193,143L18,43Z" fill="#dce8f2" stroke="#dce8f2" stroke-width="1.51"/><path d="M-109,695L-182,806L12,789Z" fill="#bcacd4" stroke="#bcacd4" stroke-width="1.51"/><path d="M-133,501L-109,695L-69,500Z" fill="#bcc2de" stroke="#bcc2de" stroke-width="1.51"/><path d="M-123,-100L-193,143L-55,-78Z" fill="#e1edf4" stroke="#e1edf4" stroke-width="1.51"/><path d="M-172,370L-69,500L-30,336Z" fill="#c2d1e6" stroke="#c2d1e6" stroke-width="1.51"/><path d="M-69,500L-109,695L-22,660Z" fill="#bbbbdb" stroke="#bbbbdb" stroke-width="1.51"/><path d="M-220,1006L-138,1163L-8,1032Z" fill="#bc91c1" stroke="#bc91c1" stroke-width="1.51"/><path d="M-172,370L-133,501L-69,500Z" fill="#c1cde4" stroke="#c1cde4" stroke-width="1.51"/><path d="M-138,1163L-146,1342L-50,1186Z" fill="#b084b0" stroke="#b084b0" stroke-width="1.51"/><path d="M-50,1186L-146,1342L-22,1234Z" fill="#ac82ac" stroke="#ac82ac" stroke-width="1.51"/><path d="M-201,286L-172,370L-30,336Z" fill="#c7d9ea" stroke="#c7d9ea" stroke-width="1.51"/><path d="M-133,501L-182,806L-109,695Z" fill="#beb8d9" stroke="#beb8d9" stroke-width="1.51"/><path d="M-173,-199L-193,143L-123,-100Z" fill="#e6f0f6" stroke="#e6f0f6" stroke-width="1.51"/><path d="M-220,1006L-146,1342L-138,1163Z" fill="#bb8ab9" stroke="#bb8ab9" stroke-width="1.51"/><path d="M-172,370L-182,806L-133,501Z" fill="#bec4df" stroke="#bec4df" stroke-width="1.51"/><path d="M-201,286L-182,806L-172,370Z" fill="#c2cce3" stroke="#c2cce3" stroke-width="1.51"/><path d="M-201,286L-220,1006L-182,806Z" fill="#c1b6d9" stroke="#c1b6d9" stroke-width="1.51"/></svg>